<svg xmlns="http://www.w3.org/2000/svg" viewBox="0 0 100 100" width="100%" height="100%">
  <!-- Premium dark background for high visibility on light/dark browser tabs -->
  <rect width="100" height="100" rx="24" fill="#0A0A0C" />
  
  <!-- Orange Circular Arc Framing Top -->
  <path
    d="M 20 72 A 38 38 0 1 1 80 72"
    stroke="#FF5E14"
    stroke-width="4.5"
    stroke-linecap="round"
    fill="none"
  />

  <!-- The Bold Stylized Winged 'F' Monogram -->
  <!-- Upper Wing & Bar -->
  <path
    d="M 34 35 C 34 32 37 30 41 30 L 68 30 C 73 30 76 33 74 36 C 72 40 67 44 60 45 L 44 45 L 44 58 L 34 58 Z"
    fill="#FFFFFF"
  />
  <!-- Lower Stem & Middle Wing -->
  <path
    d="M 34 58 L 62 58 C 66 58 68 62 67 65 C 65 70 59 74 52 74 L 43 74 L 43 86 C 43 92 37 96 34 96 Z"
    fill="#FFFFFF"
  />
</svg>
